<svg width="100" height="40" viewBox="0 0 100 40" fill="none" xmlns="http://www.w3.org/2000/svg">
<rect opacity="0.3" width="100" height="40" rx="20" fill="#EBEBEB"/>
<path opacity="0.24" fill-rule="evenodd" clip-rule="evenodd" d="M20 25.7329C20 26.4323 20.5968 26.998 21.333 26.998C21.333 26.998 28.0491 27.0025 29.0029 26.998C31.0812 27.0194 32.3926 26.4547 32.9582 24.9982C33.11 24.6258 33.9501 21.4169 33.9574 21.381C34.1966 20.3171 33.4012 19.3878 32.2412 19.3878L29.8353 19.3877C29.6496 19.3877 29.5284 19.2485 29.5647 19.0761C29.5647 19.0761 29.7434 18.2321 29.7822 18.0228C29.9276 17.24 30.0069 16.6244 29.9995 16.2066C30.012 15.5465 29.6391 14.9927 29.0497 14.5558C28.7323 14.3205 28.2469 14.1014 28.2469 14.1014C27.7415 13.8589 27.136 14.0683 26.9014 14.5507C26.9014 14.5507 24.9871 18.5117 24.8279 18.8141C24.6688 19.1166 24.252 19.388 23.8825 19.388H21.333C20.5975 19.388 20 19.9545 20 20.6532V25.7329ZM29.0173 25.7298C30.4976 25.745 31.231 25.4606 31.6047 24.7784H31.3349C30.9656 24.7784 30.6663 24.497 30.6663 24.1443C30.6663 23.794 30.9618 23.5101 31.3349 23.5101H32.0027C32.0577 23.309 32.1167 23.093 32.1758 22.8759H31.6682C31.2989 22.8759 30.9996 22.5945 30.9996 22.2418C30.9996 21.8915 31.2951 21.6076 31.6682 21.6076H32.5203C32.5978 21.3214 32.6492 21.1312 32.6517 21.1214C32.715 20.843 32.5544 20.6562 32.2411 20.6562L29.8352 20.656C28.8106 20.656 28.0553 19.7868 28.2577 18.8257C28.2646 18.7931 28.4566 17.8703 28.4693 17.8023C28.607 17.06 28.6717 16.5296 28.6664 16.2278L28.6665 16.1837C28.6701 15.9944 28.549 15.7926 28.2302 15.5563C28.1944 15.5297 27.9599 15.3947 27.9599 15.3947L26.038 19.3467C25.6818 20.0791 24.8487 20.6081 23.9998 20.6532V25.7323C26.115 25.7318 28.7585 25.7309 29.0173 25.7298ZM22.6666 20.6564H21.333L21.3333 25.7329L22.6666 25.7326V20.6564Z" fill="black"/>
<path d="M44.032 26V24.864H46.688V15.856H47.392L44.288 17.792V16.464L47.056 14.72H48.016V24.864H50.512V26H44.032ZM52.9698 26V25.008L56.9698 20.832C57.4924 20.288 57.8818 19.7707 58.1378 19.28C58.4044 18.7787 58.5378 18.2613 58.5378 17.728C58.5378 17.0773 58.3351 16.5867 57.9298 16.256C57.5244 15.9147 56.9378 15.744 56.1698 15.744C55.5724 15.744 55.0178 15.8507 54.5058 16.064C54.0044 16.2667 53.5191 16.592 53.0498 17.04L52.5698 16C52.9964 15.5733 53.5404 15.232 54.2018 14.976C54.8631 14.7093 55.5618 14.576 56.2977 14.576C57.4391 14.576 58.3191 14.8427 58.9378 15.376C59.5564 15.8987 59.8658 16.6453 59.8658 17.616C59.8658 18.3307 59.6898 19.0133 59.3378 19.664C58.9964 20.304 58.4951 20.9653 57.8338 21.648L54.2978 25.232V24.864H60.3458V26H52.9698ZM65.9235 26.144C65.1662 26.144 64.4408 26.0267 63.7475 25.792C63.0542 25.5573 62.4728 25.2213 62.0035 24.784L62.4995 23.76C63.0222 24.1867 63.5608 24.496 64.1155 24.688C64.6702 24.88 65.2675 24.976 65.9075 24.976C66.7502 24.976 67.3902 24.8 67.8275 24.448C68.2648 24.0853 68.4835 23.5573 68.4835 22.864C68.4835 22.2027 68.2595 21.7013 67.8115 21.36C67.3635 21.008 66.7075 20.832 65.8435 20.832H64.1475V19.728H65.7315C66.4782 19.728 67.0702 19.536 67.5075 19.152C67.9448 18.768 68.1635 18.2453 68.1635 17.584C68.1635 16.9867 67.9608 16.5333 67.5555 16.224C67.1608 15.904 66.5902 15.744 65.8435 15.744C64.6275 15.744 63.5768 16.176 62.6915 17.04L62.1955 16C62.6328 15.552 63.1822 15.2053 63.8435 14.96C64.5048 14.704 65.1982 14.576 65.9235 14.576C67.0328 14.576 67.9022 14.832 68.5315 15.344C69.1608 15.856 69.4755 16.5653 69.4755 17.472C69.4755 18.1653 69.2782 18.7627 68.8835 19.264C68.4888 19.7547 67.9555 20.0907 67.2835 20.272V20.096C68.0835 20.224 68.7022 20.544 69.1395 21.056C69.5768 21.5573 69.7955 22.192 69.7955 22.96C69.7955 23.9413 69.4488 24.72 68.7555 25.296C68.0728 25.8613 67.1288 26.144 65.9235 26.144ZM72.0453 26V14.224H73.3413V21.536H73.3733L77.1013 17.968H78.7333L74.3333 22.16L74.3653 21.504L79.1493 26H77.4693L73.3733 22.224H73.3413V26H72.0453Z" fill="#192646"/>
</svg>
