<svg width="22" height="24" viewBox="0 0 22 24" fill="none" xmlns="http://www.w3.org/2000/svg">
<rect opacity="0.3" width="47" height="24" rx="12" fill="black"/>
<path d="M13.8542 17V8.474H14.2042L10.0602 14.452L10.0742 13.878H16.5142V14.83H9.26217V13.962L14.0642 7.032H15.0022V17H13.8542ZM17.8667 15.558H19.3087V17H17.8667V15.558ZM17.8667 10.112H19.3087V11.568H17.8667V10.112ZM24.2009 16.482V7.704L24.8589 8.04L22.1569 9.762V8.656L24.7049 7.032H25.3629V16.482H24.2009ZM22.0029 17V16.034H27.5609V17H22.0029ZM32.9595 17.098C32.3528 17.098 31.7555 16.9907 31.1675 16.776C30.5795 16.552 30.0848 16.2487 29.6835 15.866L30.1175 14.984C30.5748 15.3573 31.0368 15.642 31.5035 15.838C31.9795 16.034 32.4648 16.132 32.9595 16.132C33.6595 16.132 34.2055 15.936 34.5975 15.544C34.9988 15.1427 35.1995 14.6013 35.1995 13.92C35.1995 13.4813 35.1108 13.0987 34.9335 12.772C34.7561 12.436 34.5041 12.1747 34.1775 11.988C33.8601 11.8013 33.4821 11.708 33.0435 11.708C32.5675 11.708 32.1381 11.806 31.7555 12.002C31.3821 12.1887 31.0508 12.478 30.7615 12.87H29.9635V7.032H35.9415V7.984H31.1115V12.016L30.7475 11.974C31.0181 11.582 31.3635 11.2787 31.7835 11.064C32.2128 10.8493 32.6935 10.742 33.2255 10.742C33.8601 10.742 34.4108 10.8773 34.8775 11.148C35.3441 11.4093 35.7035 11.778 35.9555 12.254C36.2075 12.73 36.3335 13.2807 36.3335 13.906C36.3335 14.5313 36.1935 15.0867 35.9135 15.572C35.6428 16.048 35.2555 16.4213 34.7515 16.692C34.2475 16.9627 33.6501 17.098 32.9595 17.098Z" fill="white"/>
</svg>
